<?xml version="1.0" encoding="UTF-8"?>
<svg id="Livello_1" xmlns="http://www.w3.org/2000/svg" version="1.1" xmlns:xlink="http://www.w3.org/1999/xlink" viewBox="0 0 600 600">
  <!-- Generator: Adobe Illustrator 29.5.1, SVG Export Plug-In . SVG Version: 2.1.0 Build 141)  -->
  <defs>
    <style>
      .st0 {
        fill: #fff;
      }

      .st1 {
        fill: url(#Sfumatura_senza_nome_18);
      }

      .st2 {
        fill: url(#Sfumatura_senza_nome_64);
      }

      .st3 {
        fill: url(#Sfumatura_senza_nome_23);
      }

      .st4 {
        fill: url(#Sfumatura_senza_nome_38);
      }

      .st5 {
        fill: url(#Sfumatura_senza_nome_69);
      }

      .st6 {
        fill: url(#Sfumatura_senza_nome_31);
      }

      .st7 {
        fill: url(#Sfumatura_senza_nome_68);
      }

      .st8 {
        fill: url(#Sfumatura_senza_nome_7);
      }

      .st9 {
        fill: #2a2d31;
      }

      .st10 {
        fill: url(#Sfumatura_senza_nome_72);
      }

      .st11 {
        fill: url(#Sfumatura_senza_nome_381);
      }

      .st12 {
        fill: url(#Sfumatura_senza_nome_12);
      }
    </style>
    <linearGradient id="Sfumatura_senza_nome_7" data-name="Sfumatura senza nome 7" x1="152.62" y1="312.8" x2="152.62" y2="267.11" gradientUnits="userSpaceOnUse">
      <stop offset="0" stop-color="#05f4f8"/>
      <stop offset="1" stop-color="#00fffd"/>
    </linearGradient>
    <linearGradient id="Sfumatura_senza_nome_38" data-name="Sfumatura senza nome 38" x1="447.15" y1="300.79" x2="447.15" y2="249.57" gradientTransform="translate(-3.55 5.85) rotate(-.75)" gradientUnits="userSpaceOnUse">
      <stop offset="0" stop-color="#f735f6"/>
      <stop offset="1" stop-color="#f83bf4"/>
    </linearGradient>
    <linearGradient id="Sfumatura_senza_nome_12" data-name="Sfumatura senza nome 12" x1="201.71" y1="300.3" x2="201.71" y2="223.61" gradientUnits="userSpaceOnUse">
      <stop offset="0" stop-color="#03feff"/>
      <stop offset="1" stop-color="aqua"/>
    </linearGradient>
    <linearGradient id="Sfumatura_senza_nome_18" data-name="Sfumatura senza nome 18" x1="250.8" y1="281.3" x2="250.8" y2="240.24" gradientUnits="userSpaceOnUse">
      <stop offset="0" stop-color="#30c8fd"/>
      <stop offset="1" stop-color="#3f84f2"/>
    </linearGradient>
    <linearGradient id="Sfumatura_senza_nome_23" data-name="Sfumatura senza nome 23" x1="250.8" y1="230.67" x2="250.8" y2="177.3" gradientUnits="userSpaceOnUse">
      <stop offset="0" stop-color="#fd3efc"/>
      <stop offset="1" stop-color="#fe38fb"/>
    </linearGradient>
    <linearGradient id="Sfumatura_senza_nome_31" data-name="Sfumatura senza nome 31" x1="299.89" y1="344.11" x2="299.89" y2="193.74" gradientUnits="userSpaceOnUse">
      <stop offset="0" stop-color="#00fbfa"/>
      <stop offset="1" stop-color="#8442ff"/>
    </linearGradient>
    <linearGradient id="Sfumatura_senza_nome_381" data-name="Sfumatura senza nome 38" x1="299.89" y1="184.17" x2="299.89" y2="121.64" gradientTransform="matrix(1,0,0,1,0,0)" xlink:href="#Sfumatura_senza_nome_38"/>
    <linearGradient id="Sfumatura_senza_nome_64" data-name="Sfumatura senza nome 64" x1="348.98" y1="322.17" x2="348.98" y2="266.74" gradientUnits="userSpaceOnUse">
      <stop offset="0" stop-color="#01ffff"/>
      <stop offset="1" stop-color="#4bb6ef"/>
    </linearGradient>
    <linearGradient id="Sfumatura_senza_nome_68" data-name="Sfumatura senza nome 68" x1="348.98" y1="257.17" x2="348.98" y2="217.46" gradientUnits="userSpaceOnUse">
      <stop offset=".01" stop-color="#ca4ded"/>
      <stop offset="1" stop-color="#f83bf4"/>
    </linearGradient>
    <linearGradient id="Sfumatura_senza_nome_72" data-name="Sfumatura senza nome 72" x1="398.06" y1="280.08" x2="398.06" y2="254.24" gradientUnits="userSpaceOnUse">
      <stop offset="0" stop-color="#5fb4ed"/>
      <stop offset="1" stop-color="#6ebcff"/>
    </linearGradient>
    <linearGradient id="Sfumatura_senza_nome_69" data-name="Sfumatura senza nome 69" x1="398.06" y1="244.67" x2="398.06" y2="159.8" gradientUnits="userSpaceOnUse">
      <stop offset="0" stop-color="#dd62fc"/>
      <stop offset="1" stop-color="#f83bf4"/>
    </linearGradient>
  </defs>
  <rect class="st9" x="0" y="0" width="600" height="600" rx="300" ry="300"/>
  <g>
    <g>
      <path class="st0" d="M189.76,390.8h-24.49c-1.85,0-3.34-1.5-3.34-3.34v-12.59c0-1.85,1.5-3.34,3.34-3.34h78.89c1.85,0,3.34,1.5,3.34,3.34v12.59c0,1.85-1.5,3.34-3.34,3.34h-24.63c-1.85,0-3.34,1.5-3.34,3.34v78.89c0,1.85-1.5,3.34-3.34,3.34h-16.41c-1.85,0-3.34-1.5-3.34-3.34v-78.89c0-1.85-1.5-3.34-3.34-3.34Z"/>
      <path class="st0" d="M261.39,374.87c0-1.85,1.5-3.34,3.34-3.34h34.77c22.38,0,42.79,5.95,42.79,33.58s-22.1,34-43.07,34h-11.53c-1.85,0-3.34,1.5-3.34,3.34v30.58c0,1.85-1.5,3.34-3.34,3.34h-16.27c-1.85,0-3.34-1.5-3.34-3.34v-98.16ZM300.07,421.26c14.31,0,19.69-5.53,19.69-15.58s-5.24-15.3-19.69-15.3h-12.38c-1.85,0-3.34,1.5-3.34,3.34v24.2c0,1.85,1.5,3.34,3.34,3.34h12.38Z"/>
      <path class="st0" d="M354.3,450.91l11.69-6.94c1.54-.92,3.56-.47,4.51,1.06,6.02,9.71,15.74,15.05,26.77,15.05s18.28-3.97,18.28-12.04-7.51-11.33-21.25-15.16c-18.7-5.24-38.25-10.06-38.25-32.02,0-19.55,15.3-31.31,37.83-31.31,19.8,0,32.18,8.75,39.77,18.86,1.09,1.45.77,3.53-.68,4.63l-10.68,8.13c-1.46,1.11-3.53.83-4.66-.61-5.75-7.39-14.77-12.16-23.89-12.16-9.78,0-15.16,4.25-15.16,10.48,0,8.36,7.79,11.33,21.54,15.16,18.42,4.96,37.97,10.77,37.97,32.44,0,16.86-12.75,31.88-41.94,31.88-21.18,0-34.94-9.4-43.01-22.89-.94-1.57-.39-3.62,1.18-4.56Z"/>
    </g>
    <g>
      <rect class="st8" x="135.83" y="267.11" width="33.59" height="45.69" rx="8.36" ry="8.36"/>
      <rect class="st4" x="430.36" y="249.67" width="33.59" height="51" rx="8.36" ry="8.36" transform="translate(3.62 -5.8) rotate(.75)"/>
      <rect class="st12" x="184.92" y="223.61" width="33.59" height="76.69" rx="8.36" ry="8.36"/>
      <path class="st1" d="M234,272.94c0,4.62,3.74,8.36,8.36,8.36h16.88c4.62,0,8.36-3.74,8.36-8.36v-32.7h-33.59v32.7Z"/>
      <path class="st3" d="M259.24,177.3h-16.88c-4.62,0-8.36,3.74-8.36,8.36v45.02h33.59v-45.02c0-4.62-3.74-8.36-8.36-8.36Z"/>
      <path class="st6" d="M283.09,335.75c0,4.62,3.74,8.36,8.36,8.36h16.87c4.62,0,8.36-3.74,8.36-8.36v-142.02h-33.59v142.02Z"/>
      <path class="st11" d="M308.33,121.64h-16.87c-4.62,0-8.36,3.74-8.36,8.36v54.17h33.59v-54.17c0-4.62-3.74-8.36-8.36-8.36Z"/>
      <path class="st2" d="M332.18,313.81c0,4.62,3.74,8.36,8.36,8.36h16.88c4.62,0,8.36-3.74,8.36-8.36v-47.08h-33.59v47.08Z"/>
      <path class="st7" d="M357.41,217.46h-16.88c-4.62,0-8.36,3.74-8.36,8.36v31.36h33.59v-31.36c0-4.62-3.74-8.36-8.36-8.36Z"/>
      <path class="st10" d="M381.27,271.72c0,4.62,3.74,8.36,8.36,8.36h16.88c4.62,0,8.36-3.74,8.36-8.36v-17.48h-33.59v17.48Z"/>
      <path class="st5" d="M406.5,159.8h-16.88c-4.62,0-8.36,3.74-8.36,8.36v76.52h33.59v-76.52c0-4.62-3.74-8.36-8.36-8.36Z"/>
    </g>
  </g>
</svg>